<svg width="342" height="342" viewBox="0 0 342 342" fill="none" xmlns="http://www.w3.org/2000/svg">
<g clip-path="url(#clip0_496_18)">
<path d="M0 0.498542H342V341.501H0V0.498542Z" fill="white"/>
<path d="M192.375 0.920891H149.625V139.452H0V203.39H149.625V341.922H192.375V203.39H342V139.452H192.375V0.920891Z" fill="#D80027"/>
<path d="M263.036 230.726L342 296.338V230.726H263.036ZM208.174 230.726L342 341.922V310.479L246.017 230.726H208.174ZM306.353 341.922L208.174 260.338V341.922H306.353Z" fill="#0052B4"/>
<path d="M208.174 230.726L342 341.922V310.479L246.017 230.726H208.174Z" fill="white"/>
<path d="M208.174 230.726L342 341.922V310.479L246.017 230.726H208.174Z" fill="#D80027"/>
<path d="M60.3449 230.724L0 280.866V230.724H60.3449ZM133.826 244.864V341.921H17.0272L133.826 244.864Z" fill="#0052B4"/>
<path d="M95.9827 230.726L0 310.479V341.922L133.826 230.726H95.9827Z" fill="#D80027"/>
<path d="M78.964 112.117L0 46.5047V112.117H78.964ZM133.826 112.117L0 0.920891V32.3645L95.9827 112.117H133.826ZM35.6468 0.920891L133.826 82.5059V0.920891H35.6468Z" fill="#0052B4"/>
<path d="M133.826 112.117L0 0.920891V32.3645L95.9827 112.117H133.826Z" fill="white"/>
<path d="M133.826 112.117L0 0.920891V32.3645L95.9827 112.117H133.826Z" fill="#D80027"/>
<path d="M281.655 112.119L342 61.9777V112.119H281.655ZM208.174 97.9788V0.921866H324.973L208.174 97.9788Z" fill="#0052B4"/>
<path d="M246.017 112.117L342 32.3645V0.920891L208.174 112.117H246.017Z" fill="#D80027"/>
</g>
<defs>
<clipPath id="clip0_496_18">
<rect width="342" height="342" rx="171" fill="white"/>
</clipPath>
</defs>
</svg>
