<svg width="342" height="342" viewBox="0 0 342 342" fill="none" xmlns="http://www.w3.org/2000/svg">
<g clip-path="url(#clip0_503_53)">
<mask id="mask0_503_53" style="mask-type:luminance" maskUnits="userSpaceOnUse" x="0" y="0" width="342" height="342">
<path d="M342 0H0V342H342V0Z" fill="white"/>
</mask>
<g mask="url(#mask0_503_53)">
<mask id="mask1_503_53" style="mask-type:alpha" maskUnits="userSpaceOnUse" x="0" y="1" width="342" height="342">
<path d="M171 343C265.441 343 342 266.441 342 172C342 77.5593 265.441 1 171 1C76.5593 1 0 77.5593 0 172C0 266.441 76.5593 343 171 343Z" fill="#D9D9D9"/>
</mask>
<g mask="url(#mask1_503_53)">
<path d="M0 0.498535H342V341.501H0V0.498535Z" fill="white"/>
<path d="M192.375 0.920898H149.625V139.452H0V203.39H149.625V341.922H192.375V203.39H342V139.452H192.375V0.920898Z" fill="#D80027"/>
<path d="M263.036 230.726L342 296.338V230.726H263.036ZM208.174 230.726L342 341.922V310.479L246.017 230.726H208.174ZM306.353 341.922L208.174 260.338V341.922H306.353Z" fill="#0052B4"/>
<path d="M208.174 230.726L342 341.922V310.479L246.017 230.726H208.174Z" fill="white"/>
<path d="M208.174 230.726L342 341.922V310.479L246.017 230.726H208.174Z" fill="#D80027"/>
<path d="M60.3449 230.724L0 280.866V230.724H60.3449ZM133.826 244.864V341.921H17.0272L133.826 244.864Z" fill="#0052B4"/>
<path d="M95.9827 230.726L0 310.479V341.922L133.826 230.726H95.9827Z" fill="#D80027"/>
<path d="M78.964 112.117L0 46.5047V112.117H78.964ZM133.826 112.117L0 0.920898V32.3645L95.9827 112.117H133.826ZM35.6468 0.920898L133.826 82.5059V0.920898H35.6468Z" fill="#0052B4"/>
<path d="M133.826 112.117L0 0.920898V32.3645L95.9827 112.117H133.826Z" fill="white"/>
<path d="M133.826 112.117L0 0.920898V32.3645L95.9827 112.117H133.826Z" fill="#D80027"/>
<path d="M281.655 112.119L342 61.9777V112.119H281.655ZM208.174 97.9788V0.921875H324.973L208.174 97.9788Z" fill="#0052B4"/>
<path d="M246.017 112.117L342 32.3645V0.920898L208.174 112.117H246.017Z" fill="#D80027"/>
</g>
</g>
</g>
<defs>
<clipPath id="clip0_503_53">
<rect width="342" height="342" fill="white"/>
</clipPath>
</defs>
</svg>
