<svg width="18" height="18" viewBox="0 0 18 18" fill="none" xmlns="http://www.w3.org/2000/svg">
  <path
    d="M10.2627 0C5.30067 0 1.28284 4.02991 1.28284 9C1.28284 13.9701 5.30067 18 10.2627 18C12.6975 18 14.9033 17.0277 16.5225 15.4527C16.7234 15.2558 16.7756 14.9504 16.647 14.7013C16.5185 14.4522 16.2412 14.3116 15.964 14.3598C15.5703 14.4281 15.1685 14.4643 14.7546 14.4643C10.8614 14.4643 7.70334 11.2982 7.70334 7.39286C7.70334 4.74911 9.14976 2.44688 11.2913 1.23348C11.5364 1.09286 11.6609 0.811607 11.6006 0.538393C11.5404 0.265179 11.3073 0.0602679 11.0261 0.0361608C10.773 0.0160715 10.5198 0.0040178 10.2627 0.0040178V0Z"
    fill="currentColor" />
</svg>