<svg viewBox="0 0 18 18" fill="none" xmlns="http://www.w3.org/2000/svg">
<path d="M3.375 3.375C3.375 2.13398 4.38398 1.125 5.625 1.125H15.75C16.991 1.125 18 2.13398 18 3.375V14.625C18 15.866 16.991 16.875 15.75 16.875H2.8125C1.25859 16.875 0 15.6164 0 14.0625V4.5C0 3.87773 0.502734 3.375 1.125 3.375C1.74727 3.375 2.25 3.87773 2.25 4.5V14.0625C2.25 14.3719 2.50312 14.625 2.8125 14.625C3.12188 14.625 3.375 14.3719 3.375 14.0625V3.375ZM5.625 4.21875V7.03125C5.625 7.49883 6.00117 7.875 6.46875 7.875H10.4062C10.8738 7.875 11.25 7.49883 11.25 7.03125V4.21875C11.25 3.75117 10.8738 3.375 10.4062 3.375H6.46875C6.00117 3.375 5.625 3.75117 5.625 4.21875ZM12.9375 3.9375C12.9375 4.24688 13.1906 4.5 13.5 4.5H15.1875C15.4969 4.5 15.75 4.24688 15.75 3.9375C15.75 3.62812 15.4969 3.375 15.1875 3.375H13.5C13.1906 3.375 12.9375 3.62812 12.9375 3.9375ZM12.9375 7.3125C12.9375 7.62188 13.1906 7.875 13.5 7.875H15.1875C15.4969 7.875 15.75 7.62188 15.75 7.3125C15.75 7.00312 15.4969 6.75 15.1875 6.75H13.5C13.1906 6.75 12.9375 7.00312 12.9375 7.3125ZM5.625 10.6875C5.625 10.9969 5.87812 11.25 6.1875 11.25H15.1875C15.4969 11.25 15.75 10.9969 15.75 10.6875C15.75 10.3781 15.4969 10.125 15.1875 10.125H6.1875C5.87812 10.125 5.625 10.3781 5.625 10.6875ZM5.625 14.0625C5.625 14.3719 5.87812 14.625 6.1875 14.625H15.1875C15.4969 14.625 15.75 14.3719 15.75 14.0625C15.75 13.7531 15.4969 13.5 15.1875 13.5H6.1875C5.87812 13.5 5.625 13.7531 5.625 14.0625Z" fill="currentColor"/>
</svg>
