<svg viewBox="0 0 18 18" fill="none" xmlns="http://www.w3.org/2000/svg">
<path d="M9 0.5625C8.76445 0.5625 8.62031 0.464062 8.45508 0.348047C8.22305 0.189844 7.94531 0 7.3125 0C6.24023 0 5.48438 1.53633 4.99219 3.14297C3.3293 3.44883 2.25 3.94453 2.25 4.5C2.25 5.00273 3.12891 5.45273 4.52109 5.76211C4.50703 5.90273 4.5 6.04336 4.5 6.1875C4.5 6.78516 4.61602 7.35469 4.82695 7.875H2.72109C2.46094 7.875 2.25 8.08594 2.25 8.34609C2.25 8.40586 2.26055 8.46562 2.28516 8.52187L3.64922 11.9285C2.11641 13.0711 1.125 14.8992 1.125 16.9559C1.125 17.5324 1.59258 18 2.16914 18H15.8309C16.4074 18 16.875 17.5324 16.875 16.9559C16.875 14.8992 15.8836 13.0746 14.3543 11.9285L15.7148 8.52187C15.7359 8.46562 15.75 8.40586 15.75 8.34609C15.75 8.08594 15.5391 7.875 15.2789 7.875H13.173C13.384 7.35469 13.5 6.78516 13.5 6.1875C13.5 6.04336 13.493 5.90273 13.4789 5.76211C14.8711 5.45273 15.75 5.00273 15.75 4.5C15.75 3.94453 14.6707 3.44883 13.0078 3.14297C12.5156 1.53633 11.7598 0 10.6875 0C10.0547 0 9.77695 0.189844 9.54492 0.348047C9.37617 0.464062 9.23555 0.5625 9 0.5625ZM10.9688 7.875H10.5328C9.95273 7.875 9.43945 7.50234 9.25664 6.95391C9.17578 6.70781 8.82773 6.70781 8.74688 6.95391C8.56406 7.50234 8.04727 7.875 7.4707 7.875H7.03125C6.2543 7.875 5.625 7.2457 5.625 6.46875V5.9625C6.61641 6.10664 7.76953 6.1875 9 6.1875C10.2305 6.1875 11.3836 6.10664 12.375 5.9625V6.46875C12.375 7.2457 11.7457 7.875 10.9688 7.875ZM7.875 11.25L8.4375 12.375L7.3125 16.875L5.625 10.125L7.875 11.25ZM12.375 10.125L10.6875 16.875L9.5625 12.375L10.125 11.25L12.375 10.125Z" fill="currentColor"/>
</svg>
