<svg width="18" height="18" viewBox="0 0 18 18" fill="none" xmlns="http://www.w3.org/2000/svg">
  <path
    d="M12.7084 0.0434829C12.8842 0.1173 13.0107 0.275481 13.0459 0.461782L13.7454 4.25459L17.5382 4.95059C17.7245 4.98574 17.8827 5.11228 17.9565 5.28804C18.0303 5.46379 18.0092 5.66415 17.9003 5.82233L15.7104 9L17.9003 12.1742C18.0092 12.3323 18.0303 12.5327 17.9565 12.7084C17.8827 12.8842 17.7245 13.0107 17.5382 13.0459L13.7454 13.7454L13.0459 17.5382C13.0107 17.7245 12.8842 17.8827 12.7084 17.9565C12.5327 18.0303 12.3323 18.0092 12.1742 17.9003L9 15.7104L5.82585 17.9003C5.66767 18.0092 5.46731 18.0303 5.29155 17.9565C5.1158 17.8827 4.98925 17.7245 4.9541 17.5382L4.25459 13.7454L0.461782 13.0459C0.275481 13.0107 0.1173 12.8842 0.0434829 12.7084C-0.0303346 12.5327 -0.0092439 12.3323 0.0997247 12.1742L2.28964 9L0.0997247 5.82585C-0.0092439 5.66767 -0.0303346 5.46731 0.0434829 5.29155C0.1173 5.1158 0.275481 4.98925 0.461782 4.9541L4.25459 4.25459L4.9541 0.461782C4.98925 0.275481 5.1158 0.1173 5.29155 0.0434829C5.46731 -0.0303346 5.66767 -0.0092439 5.82585 0.0997247L9 2.28964L12.1742 0.0997247C12.3323 -0.0092439 12.5327 -0.0303346 12.7084 0.0434829ZM5.62549 9C5.62549 8.10502 5.98102 7.2467 6.61386 6.61386C7.2467 5.98102 8.10502 5.62549 9 5.62549C9.89498 5.62549 10.7533 5.98102 11.3861 6.61386C12.019 7.2467 12.3745 8.10502 12.3745 9C12.3745 9.89498 12.019 10.7533 11.3861 11.3861C10.7533 12.019 9.89498 12.3745 9 12.3745C8.10502 12.3745 7.2467 12.019 6.61386 11.3861C5.98102 10.7533 5.62549 9.89498 5.62549 9ZM13.4993 9C13.4993 7.8067 13.0253 6.66227 12.1815 5.81848C11.3377 4.97469 10.1933 4.50065 9 4.50065C7.8067 4.50065 6.66227 4.97469 5.81848 5.81848C4.97469 6.66227 4.50065 7.8067 4.50065 9C4.50065 10.1933 4.97469 11.3377 5.81848 12.1815C6.66227 13.0253 7.8067 13.4993 9 13.4993C10.1933 13.4993 11.3377 13.0253 12.1815 12.1815C13.0253 11.3377 13.4993 10.1933 13.4993 9Z"
    fill="currentColor" />
</svg>