<svg width="32" height="32" viewBox="0 0 32 32" fill="none" xmlns="http://www.w3.org/2000/svg">
<g clip-path="url(#clip0_70_82)">
<path d="M22.843 22.4186C22.8204 22.4404 22.7979 22.4623 22.7754 22.4805C22.7622 22.4932 22.7491 22.506 22.736 22.5169C22.7322 22.5224 22.7266 22.5278 22.7228 22.5315C22.7022 22.5515 22.6796 22.5715 22.6571 22.5934C22.6327 22.617 22.6064 22.6389 22.582 22.6607C22.3157 22.8725 21.9821 22.9883 21.6377 22.9885C20.8174 22.9885 20.1528 22.3439 20.1528 21.55C20.1528 21.164 20.3086 20.8144 20.5658 20.5558C20.5677 20.5522 20.5696 20.5504 20.5752 20.5467C20.5958 20.5249 20.6184 20.5048 20.6409 20.4866L20.6672 20.463L20.7479 20.3828C22.9781 18.2706 23.3367 14.9912 21.878 12.4402H21.8799C22.5933 12.5021 23.3217 12.3145 23.9224 11.8775C23.9956 11.8247 24.067 11.7683 24.1364 11.7082C24.3051 11.5616 24.4551 11.3959 24.5832 11.2147C26.5262 14.831 25.9743 19.3795 22.843 22.4186ZM4.90726 9.10799C3.59503 11.1656 2.95299 13.5127 2.98303 15.8543C2.98491 15.8798 2.98491 15.9035 2.98491 15.929V15.9527C2.9785 16.3325 2.81844 16.6946 2.53924 16.961C2.26004 17.2274 1.88409 17.3766 1.49246 17.3766C0.719008 17.3766 0.0844815 16.8066 0.00751231 16.0765C0.00563501 16.0655 0.00563501 16.0528 0.00563501 16.0401C0.00188041 15.9781 0.00188041 15.9162 0.00188041 15.8543C-0.0337883 12.8754 0.82226 9.88369 2.56627 7.29259C2.57002 7.28712 2.5719 7.28348 2.57566 7.27802C2.7953 7.74234 3.12195 8.14475 3.52182 8.45794C3.60386 8.52201 3.68906 8.58217 3.77713 8.63821C3.78839 8.64549 3.79966 8.65096 3.80904 8.65824C3.88789 8.70922 3.97049 8.75474 4.05309 8.79845C4.09439 8.81848 4.13381 8.83851 4.17324 8.85671C4.40602 8.96414 4.65383 9.04608 4.91289 9.10071C4.91102 9.10253 4.90914 9.10617 4.90726 9.10799Z" fill="#009DFF" fill-opacity="0.4"/>
<path d="M29.1169 24.0683C29.1169 24.0683 29.1131 24.0774 29.1094 24.081C28.8841 23.6058 28.5481 23.1961 28.1332 22.8811L28.1219 22.8701C28.0562 22.8228 27.9905 22.7755 27.9211 22.7318C27.9173 22.7281 27.9117 22.7245 27.9079 22.7208C27.8347 22.6753 27.7596 22.6316 27.6827 22.5897C27.647 22.5697 27.6113 22.5515 27.5738 22.5333C27.3222 22.4113 27.0538 22.3184 26.7722 22.2602C26.774 22.2565 26.7759 22.2547 26.7778 22.251C29.8528 17.4385 29.2502 11.0254 24.9455 6.85193C21.3712 3.38864 16.0584 2.28519 11.352 3.98042C11.2206 4.02594 11.0817 4.05325 10.9371 4.06054H10.9296C10.9052 4.06236 10.8808 4.06236 10.8564 4.06236C10.0398 4.06236 9.37711 3.42141 9.37711 2.63115C9.37711 2.42539 9.42029 2.23238 9.50101 2.05758C9.58608 1.86906 9.71189 1.70046 9.86995 1.56318C10.028 1.4259 10.2146 1.32314 10.4171 1.26186C16.1992 -0.795727 22.6665 0.555359 27.05 4.8162C32.4416 10.0476 33.1249 18.114 29.1169 24.0683Z" fill="#009DFF" fill-opacity="0.4"/>
<path d="M20.4231 7.22157C20.3086 7.29987 20.1979 7.38909 20.0927 7.48924C20.0758 7.50198 20.0608 7.51473 20.0458 7.53112L20.042 7.53294C20.0064 7.56754 19.9726 7.60213 19.9407 7.63673C19.905 7.67315 19.8731 7.71139 19.8412 7.7478C19.8093 7.78604 19.7792 7.8261 19.7492 7.86434C19.7267 7.89529 19.7023 7.92807 19.6797 7.96084C19.6591 7.98998 19.6403 8.02093 19.6215 8.05007C19.2742 8.58905 19.1316 9.21361 19.186 9.82542C16.4508 8.33048 13.0153 8.80391 10.8114 10.9817C8.85522 12.8736 8.34647 15.6431 9.26259 18.0193C9.2701 18.0357 9.27573 18.0521 9.28137 18.0703C9.28512 18.0813 9.29075 18.0922 9.29263 18.1049C9.34895 18.2488 9.37711 18.4054 9.37711 18.5692C9.37711 18.7535 9.33966 18.936 9.2669 19.1062C9.19414 19.2764 9.08749 19.4311 8.95306 19.5613C8.81863 19.6915 8.65906 19.7948 8.48346 19.8651C8.30787 19.9355 8.1197 19.9716 7.92971 19.9713C7.89029 19.9713 7.85087 19.9695 7.81144 19.9659C7.54846 19.9452 7.29636 19.855 7.08254 19.7051C6.86872 19.5552 6.70138 19.3512 6.59871 19.1155C6.59495 19.1082 6.5912 19.1009 6.58932 19.0937C6.57806 19.0682 6.56867 19.0427 6.56116 19.0172C6.55547 19.0076 6.55165 18.9971 6.5499 18.9862C6.15567 17.9574 5.94165 16.8449 5.94165 15.6813C5.94165 10.3753 10.3777 6.07806 15.8425 6.07806C17.4251 6.07806 18.9889 6.48776 20.4231 7.22157Z" fill="#009DFF" fill-opacity="0.4"/>
<path d="M8.13809 3.46148C6.78832 2.14499 4.59188 2.14499 3.23835 3.45783C2.16828 4.49573 1.94489 6.04165 2.56627 7.29259C2.7296 7.62581 2.95487 7.93718 3.23835 8.21395C3.32846 8.30135 3.4242 8.38329 3.52182 8.45795C3.60386 8.52201 3.68906 8.58217 3.77713 8.63821C3.78839 8.6455 3.79966 8.65096 3.80904 8.65824C3.88789 8.70923 3.97049 8.75475 4.05309 8.79845C4.09439 8.81848 4.13382 8.83851 4.17324 8.85672C4.4079 8.96961 4.65571 9.05337 4.90726 9.108C6.03364 9.3611 7.26327 9.06248 8.13809 8.21395C9.49163 6.9011 9.49163 4.77432 8.13809 3.46148ZM15.7862 11.8393C13.6574 11.8393 11.827 13.5618 11.8814 15.6813C11.8814 16.8358 12.4089 17.8737 13.2425 18.5692C13.6311 18.8934 14.0854 19.1446 14.5847 19.2976C14.9808 19.4196 15.4032 19.4797 15.8425 19.4688C16.0021 19.4651 16.1598 19.4524 16.3156 19.4305C16.7755 19.3723 17.2111 19.243 17.6072 19.0536C18.9082 18.4363 19.8036 17.1854 19.8036 15.6813C19.7473 13.5618 18.0277 11.8393 15.7862 11.8393ZM29.1169 24.0683C28.9555 23.7351 28.7302 23.4237 28.4486 23.1487C28.3491 23.0522 28.2421 22.963 28.1332 22.8811L28.1219 22.8701C28.0562 22.8228 27.9905 22.7755 27.9211 22.7318C27.9173 22.7281 27.9117 22.7245 27.9079 22.7208C27.8347 22.6753 27.7596 22.6316 27.6827 22.5897C27.647 22.5697 27.6113 22.5515 27.5738 22.5333C27.3185 22.404 27.0519 22.3093 26.7778 22.251C25.6533 21.9998 24.4237 22.2984 23.547 23.1487C22.1934 24.4598 22.1934 26.5884 23.547 27.9012C24.9005 29.2141 27.0951 29.2141 28.4486 27.9012C29.1225 27.2475 29.4605 26.3881 29.4605 25.5286C29.4605 25.0279 29.3459 24.529 29.1169 24.0683Z" fill="#009DFF"/>
<path d="M24.5832 11.2147C24.4551 11.3959 24.3051 11.5616 24.1364 11.7082C24.067 11.7683 23.9956 11.8247 23.9224 11.8775C23.3217 12.3146 22.5933 12.5021 21.8799 12.4402H21.878C21.2078 12.3819 20.5564 12.1052 20.0439 11.6062C19.5509 11.129 19.2471 10.4984 19.186 9.82542C19.1316 9.21361 19.2742 8.58905 19.6215 8.05007C19.6403 8.02094 19.6591 7.98998 19.6797 7.96085C19.7023 7.92807 19.7267 7.8953 19.7492 7.86434C19.7792 7.82611 19.8093 7.78605 19.8412 7.74781C19.8731 7.71139 19.905 7.67315 19.9407 7.63673C19.9763 7.60032 20.0101 7.56572 20.0458 7.53112C20.0608 7.51474 20.0758 7.50199 20.0927 7.48924C20.1979 7.3891 20.3086 7.29987 20.4231 7.22158C21.5833 6.41675 23.2034 6.52054 24.2453 7.53112C25.2797 8.53442 25.3923 10.0913 24.5832 11.2147Z" fill="#009DFF"/>
<path d="M7.8396 29.6147V32H0.00563704V21.0019H2.98116V29.6147H7.8396ZM19.0827 28.7388C19.0546 28.0633 18.8387 27.5097 18.4332 27.0782C18.0859 26.7085 17.6185 26.4463 17.0365 26.2843C17.1904 26.2242 17.335 26.1568 17.4701 26.0767C17.7424 25.9201 17.977 25.7253 18.176 25.494C18.5665 25.037 18.7617 24.4853 18.7617 23.8407C18.7617 23.4656 18.6998 23.1232 18.574 22.8155C18.4069 22.4058 18.1291 22.0562 17.7405 21.7649C17.059 21.2569 16.0866 21.0019 14.8213 21.0019H9.31892V32H14.9977C15.2512 32 15.4952 31.9891 15.7261 31.9654C16.6535 31.878 17.4082 31.6121 17.9902 31.166C18.7185 30.6107 19.0846 29.8477 19.0846 28.8808C19.0846 28.8335 19.0846 28.7862 19.0827 28.7388ZM12.1668 23.1087H14.275C14.8363 23.1087 15.2493 23.1961 15.5121 23.3745C15.5159 23.3745 15.5178 23.3782 15.5215 23.38C15.7843 23.5639 15.9157 23.8461 15.9157 24.2303C15.9157 24.6145 15.7843 24.9022 15.5215 25.0898C15.2587 25.2773 14.8419 25.3702 14.275 25.3702H12.1668V23.1087ZM16.1973 29.1339C16.1335 29.327 16.0209 29.4817 15.8594 29.5983C15.5853 29.7967 15.1705 29.8951 14.6129 29.8951H12.1668V27.477H14.6129C15.1705 27.477 15.5853 27.5698 15.8594 27.7574C16.1316 27.9449 16.2687 28.2508 16.2687 28.6769C16.2687 28.8481 16.2461 28.9992 16.1973 29.1339Z" fill="#009DFF"/>
</g>
<defs>
<clipPath id="clip0_70_82">
<rect width="32" height="32" fill="white"/>
</clipPath>
</defs>
</svg>
