<svg xmlns="http://www.w3.org/2000/svg" fill="none" viewBox="0 0 512 512"><path fill-opacity=".4" d="M365.488 358.697c-.361.35-.721.699-1.082.991-.21.204-.42.408-.631.582-.06.088-.15.175-.21.233-.33.321-.691.641-1.051.991-.391.379-.811.728-1.202 1.078-4.261 3.387-9.599 5.24-15.108 5.244-13.126 0-23.759-10.313-23.759-23.016 0-6.176 2.493-11.77 6.608-15.907.03-.058.06-.087.15-.146.331-.349.691-.67 1.051-.961l.421-.379 1.291-1.282c35.684-33.795 41.421-86.265 18.083-127.082h.03c11.414.991 23.068-2.01 32.68-9.002a49.302 49.302 0 0 0 3.424-2.71 44.528 44.528 0 0 0 7.149-7.895c31.088 57.86 22.257 130.637-27.844 179.261ZM78.516 145.728c-20.996 32.921-31.268 70.475-30.788 107.941.03.408.03.787.03 1.195v.378c-.102 6.077-2.663 11.872-7.13 16.134-4.467 4.262-10.483 6.65-16.749 6.649-12.375 0-22.527-9.119-23.759-20.801-.03-.175-.03-.379-.03-.583-.06-.991-.06-1.981-.06-2.972-.57-47.663 13.126-95.53 41.03-136.988.06-.087.09-.145.15-.233 3.515 7.429 8.741 13.868 15.139 18.879a51.824 51.824 0 0 0 4.085 2.884c.18.117.36.204.51.321 1.262.816 2.584 1.544 3.906 2.243.66.321 1.291.641 1.922.932a55.583 55.583 0 0 0 11.834 3.904c-.03.03-.06.088-.09.117Z"/><path fill-opacity=".4" d="M465.871 385.092s-.061.146-.121.204a52.155 52.155 0 0 0-15.619-19.199l-.18-.175c-1.051-.757-2.103-1.515-3.214-2.214-.06-.058-.15-.116-.21-.175a72.212 72.212 0 0 0-3.605-2.097 31.383 31.383 0 0 0-1.742-.903 54.877 54.877 0 0 0-12.825-4.371c.03-.058.06-.087.09-.145 49.2-77.001 39.558-179.611-29.316-246.386-57.19-55.413-142.194-73.068-217.497-45.944a23.893 23.893 0 0 1-6.638 1.282h-.12c-.39.029-.781.029-1.171.029-13.066 0-23.669-10.255-23.669-22.9 0-3.292.691-6.38 1.982-9.177a23.033 23.033 0 0 1 5.903-7.91 23.914 23.914 0 0 1 8.755-4.821C259.187-12.732 362.664 8.886 432.8 77.06c86.266 83.701 97.199 212.764 33.071 308.032Z"/><path fill-opacity=".4" d="M326.77 115.545a42.175 42.175 0 0 0-5.286 4.283 5.294 5.294 0 0 0-.751.67l-.06.029a41.166 41.166 0 0 0-1.622 1.661c-.571.582-1.082 1.194-1.592 1.777-.511.612-.992 1.253-1.472 1.864-.361.496-.751 1.02-1.111 1.545-.331.466-.631.961-.932 1.427-5.556 8.624-7.839 18.617-6.968 28.406-43.764-23.919-98.731-16.344-133.994 18.5-31.298 30.27-39.438 74.583-24.78 112.602.12.263.21.525.3.816.06.175.15.35.18.554.901 2.301 1.352 4.807 1.352 7.429 0 2.948-.599 5.868-1.764 8.591a22.4 22.4 0 0 1-5.021 7.282 23.203 23.203 0 0 1-7.514 4.861 23.76 23.76 0 0 1-8.86 1.699c-.63 0-1.261-.029-1.892-.087a23.53 23.53 0 0 1-11.662-4.173c-3.421-2.398-6.099-5.661-7.742-9.433a1.733 1.733 0 0 1-.15-.35c-.18-.407-.33-.815-.45-1.223a1.407 1.407 0 0 1-.181-.495c-6.307-16.461-9.732-34.262-9.732-52.879 0-84.896 70.977-153.652 158.414-153.652 25.321 0 50.342 6.555 73.29 18.296Z"/><path d="M130.21 55.384c-21.597-21.064-56.74-21.064-78.397-.059-17.12 16.607-20.695 41.341-10.753 61.356 2.614 5.332 6.218 10.314 10.753 14.742a51.12 51.12 0 0 0 4.536 3.904 51.806 51.806 0 0 0 4.085 2.884c.18.117.36.204.51.321 1.262.816 2.584 1.544 3.906 2.243.66.321 1.291.641 1.922.932a53.123 53.123 0 0 0 11.744 4.021c18.022 4.05 37.696-.728 51.694-14.305 21.656-21.005 21.656-55.034 0-76.04Zm122.369 134.045c-34.061 0-63.347 27.561-62.476 61.472 0 18.471 8.44 35.078 21.777 46.207a61.8 61.8 0 0 0 21.476 11.654c6.338 1.951 13.096 2.913 20.124 2.738a65.016 65.016 0 0 0 7.57-.612c7.359-.932 14.327-3.001 20.665-6.03 20.816-9.877 35.143-29.892 35.143-53.957-.901-33.911-28.415-61.472-64.279-61.472ZM465.87 385.092c-2.583-5.331-6.187-10.313-10.693-14.712a53.206 53.206 0 0 0-5.046-4.283l-.18-.175c-1.051-.757-2.103-1.515-3.214-2.214-.06-.058-.15-.116-.21-.175a72.212 72.212 0 0 0-3.605-2.097 31.383 31.383 0 0 0-1.742-.903 52.15 52.15 0 0 0-12.735-4.516c-17.992-4.021-37.666.757-51.694 14.363-21.656 20.976-21.656 55.034 0 76.039 21.657 21.006 56.77 21.006 78.426 0 10.784-10.459 16.19-24.21 16.19-37.961a52.402 52.402 0 0 0-5.497-23.366Zm-72.538-205.656a44.528 44.528 0 0 1-7.149 7.895 49.302 49.302 0 0 1-3.424 2.71c-9.612 6.992-21.266 9.993-32.68 9.002h-.03c-10.723-.932-21.146-5.361-29.346-13.343-7.889-7.636-12.75-17.725-13.727-28.493-.871-9.789 1.412-19.782 6.968-28.406.301-.466.601-.961.932-1.427.36-.525.751-1.049 1.111-1.545.481-.611.961-1.252 1.472-1.864.51-.583 1.021-1.195 1.592-1.777a89.534 89.534 0 0 1 1.682-1.69c.24-.262.48-.466.751-.67a42.265 42.265 0 0 1 5.286-4.283c18.563-12.877 44.485-11.216 61.155 4.953 16.55 16.053 18.353 40.962 5.407 58.938ZM125.434 473.834V512H.09V336.031h47.608v137.803h77.736Zm179.89-14.013c-.451-10.809-3.905-19.665-10.393-26.57-5.557-5.914-13.036-10.11-22.347-12.703 2.463-.961 4.776-2.039 6.938-3.321a43.18 43.18 0 0 0 11.294-9.323c6.248-7.312 9.372-16.14 9.372-26.453 0-6.002-.992-11.479-3.004-16.403-2.673-6.555-7.119-12.149-13.336-16.81-10.904-8.128-26.463-12.207-46.708-12.207h-88.037V512h90.861c4.055 0 7.96-.175 11.654-.554 14.838-1.398 26.913-5.652 36.225-12.789 11.654-8.886 17.511-21.093 17.511-36.564 0-.757 0-1.515-.03-2.272Zm-110.656-90.082H228.4c8.981 0 15.589 1.398 19.794 4.253.06 0 .09.059.15.088 4.205 2.942 6.308 7.458 6.308 13.605 0 6.148-2.103 10.751-6.308 13.752-4.205 3-10.873 4.486-19.944 4.486h-33.732v-36.184Zm64.489 96.404c-1.021 3.088-2.823 5.565-5.406 7.429-4.386 3.176-11.024 4.749-19.945 4.749h-39.138v-38.69h39.138c8.921 0 15.559 1.486 19.945 4.487 4.355 3.001 6.548 7.895 6.548 14.712 0 2.739-.361 5.157-1.142 7.313Z"/><style>path{fill:#000}@media (prefers-color-scheme:dark){path{fill:#fff}}</style></svg>