<svg xmlns="http://www.w3.org/2000/svg" fill="none" viewBox="0 0 512 512"><path fill-opacity=".4" d="M310.744 307.349c-.18.174-.361.349-.541.495-.105.102-.21.204-.315.291a.822.822 0 0 1-.105.117c-.166.16-.346.32-.526.495-.195.189-.406.364-.601.539a12.156 12.156 0 0 1-7.554 2.622c-6.563 0-11.88-5.157-11.88-11.508 0-3.088 1.247-5.885 3.304-7.953.015-.03.031-.044.076-.073.165-.175.345-.335.525-.481l.21-.189.646-.641c17.842-16.898 20.711-43.133 9.041-63.541h.015c5.707.495 11.534-1.006 16.34-4.502a24.549 24.549 0 0 0 1.712-1.354 22.268 22.268 0 0 0 3.575-3.948c15.544 28.93 11.128 65.318-13.922 89.631ZM167.258 200.864a97.933 97.933 0 0 0-15.394 53.971c.015.204.015.393.015.597v.189c-.051 3.039-1.331 5.936-3.565 8.067-2.234 2.131-5.241 3.325-8.374 3.325-6.188 0-11.264-4.56-11.88-10.401-.015-.088-.015-.19-.015-.292-.03-.495-.03-.99-.03-1.485-.285-23.832 6.563-47.766 20.515-68.494.03-.044.045-.073.075-.117a26.295 26.295 0 0 0 9.612 10.882c.09.058.18.102.255.16.631.408 1.292.772 1.953 1.122.33.16.646.32.961.466a27.822 27.822 0 0 0 5.917 1.952c-.015.014-.03.043-.045.058Z"/><path fill-opacity=".4" d="M360.935 320.546s-.03.073-.06.102a26.075 26.075 0 0 0-7.809-9.599l-.09-.088a31.477 31.477 0 0 0-1.607-1.107c-.031-.029-.076-.058-.106-.087a34.908 34.908 0 0 0-1.802-1.049c-.285-.16-.57-.306-.871-.452a27.403 27.403 0 0 0-6.413-2.185c.015-.029.03-.044.045-.073 24.6-38.5 19.78-89.805-14.658-123.193-28.595-27.706-71.097-36.533-108.748-22.972a11.905 11.905 0 0 1-3.319.641h-.06c-.195.015-.39.015-.586.015-6.533 0-11.834-5.128-11.834-11.45 0-1.646.345-3.19.991-4.588a11.53 11.53 0 0 1 2.952-3.956 11.948 11.948 0 0 1 4.377-2.41c46.257-16.461 97.995-5.652 133.063 28.435 43.133 41.851 48.6 106.382 16.535 154.016Z"/><path fill-opacity=".4" d="M291.385 185.773a21.083 21.083 0 0 0-2.643 2.141 2.735 2.735 0 0 0-.376.335l-.03.015c-.285.276-.555.553-.811.83-.285.291-.54.597-.796.888-.255.306-.495.627-.736.933-.18.247-.375.51-.555.772-.165.233-.316.48-.466.714-2.778 4.311-3.92 9.308-3.484 14.202-21.882-11.959-49.365-8.172-66.997 9.25-15.649 15.135-19.719 37.292-12.39 56.302.06.131.105.262.15.408.03.087.075.174.09.276.451 1.151.676 2.404.676 3.715 0 1.474-.3 2.934-.882 4.296a11.179 11.179 0 0 1-2.511 3.64 11.595 11.595 0 0 1-3.756 2.431c-1.405.563-2.91.851-4.43.85-.316 0-.631-.015-.946-.044a11.77 11.77 0 0 1-5.832-2.086 11.266 11.266 0 0 1-3.87-4.717.879.879 0 0 1-.075-.175 4.883 4.883 0 0 1-.226-.612.707.707 0 0 1-.09-.247c-3.154-8.231-4.866-17.131-4.866-26.439 0-42.448 35.489-76.826 79.207-76.826 12.661 0 25.171 3.277 36.645 9.148Z"/><path d="M193.105 155.692c-10.798-10.532-28.37-10.532-39.198-.029-8.561 8.303-10.348 20.67-5.377 30.678 1.307 2.666 3.109 5.156 5.377 7.371a25.82 25.82 0 0 0 2.268 1.952c.656.512 1.338.993 2.042 1.442.09.058.18.102.255.16.631.408 1.292.772 1.953 1.122.33.16.646.32.961.466a26.587 26.587 0 0 0 5.872 2.01c9.011 2.025 18.848-.364 25.847-7.152 10.828-10.503 10.828-27.517 0-38.02Zm61.185 67.022c-17.031 0-31.674 13.781-31.239 30.737 0 9.235 4.221 17.538 10.889 23.103a30.904 30.904 0 0 0 10.738 5.827 31.453 31.453 0 0 0 10.062 1.369 32.517 32.517 0 0 0 3.785-.306 33.782 33.782 0 0 0 10.332-3.015c10.408-4.938 17.572-14.946 17.572-26.978-.451-16.956-14.207-30.737-32.139-30.737Zm106.645 97.832c-1.291-2.666-3.094-5.156-5.346-7.356a26.524 26.524 0 0 0-2.523-2.141l-.091-.088a31.013 31.013 0 0 0-1.606-1.107c-.031-.029-.076-.058-.106-.087a35.65 35.65 0 0 0-1.802-1.049c-.285-.16-.571-.306-.871-.452a26.126 26.126 0 0 0-6.368-2.258c-8.996-2.01-18.833.379-25.846 7.182-10.829 10.488-10.829 27.517 0 38.02 10.828 10.503 28.384 10.503 39.213 0 5.391-5.23 8.095-12.105 8.095-18.981a26.21 26.21 0 0 0-2.749-11.683Zm-36.269-102.828a22.268 22.268 0 0 1-3.575 3.948c-.555.48-1.126.932-1.712 1.354-4.806 3.496-10.633 4.997-16.34 4.502h-.015c-5.361-.467-10.573-2.681-14.673-6.672-3.944-3.818-6.374-8.862-6.863-14.247-.436-4.894.706-9.891 3.484-14.202.15-.233.301-.481.466-.714.18-.262.375-.525.555-.772.241-.306.481-.627.736-.933.256-.291.511-.597.796-.888.286-.291.556-.568.841-.845.121-.131.241-.233.376-.335a21.083 21.083 0 0 1 2.643-2.141c9.281-6.439 22.242-5.609 30.578 2.476 8.275 8.026 9.176 20.481 2.703 29.469ZM190.717 364.917V384h-62.672v-87.985h23.804v68.902h38.868Zm89.945-7.006c-.225-5.405-1.952-9.833-5.196-13.286-2.779-2.957-6.518-5.054-11.174-6.351 1.231-.48 2.388-1.019 3.469-1.66a21.601 21.601 0 0 0 5.647-4.662c3.124-3.656 4.686-8.07 4.686-13.227 0-3-.496-5.739-1.502-8.201-1.337-3.277-3.559-6.074-6.668-8.405-5.452-4.064-13.231-6.104-23.354-6.104h-44.019V384h45.431c2.027 0 3.98-.087 5.827-.277 7.419-.699 13.457-2.826 18.112-6.395 5.827-4.443 8.756-10.546 8.756-18.281 0-.379 0-.758-.015-1.136Zm-55.328-45.042H242.2c4.49 0 7.794.7 9.897 2.127.03 0 .045.029.075.044 2.103 1.471 3.154 3.729 3.154 6.803 0 3.073-1.051 5.375-3.154 6.875-2.102 1.501-5.437 2.244-9.972 2.244h-16.866v-18.093Zm32.245 48.203c-.511 1.544-1.412 2.782-2.704 3.714-2.192 1.588-5.511 2.375-9.972 2.375h-19.569v-19.345h19.569c4.461 0 7.78.743 9.972 2.243 2.178 1.5 3.274 3.948 3.274 7.356 0 1.37-.18 2.579-.57 3.657Z"/><style>path{fill:#000}@media (prefers-color-scheme:dark){path{fill:#fff}}</style></svg>