<?xml version="1.0" encoding="utf-8"?><svg xmlns="http://www.w3.org/2000/svg" xmlns:xlink="http://www.w3.org/1999/xlink"><symbol fill="currentColor" viewBox="0 0 512 512" id="codepen" xmlns="http://www.w3.org/2000/svg"><path d="m502.3 159.7-234-156c-8-4.9-16.5-5-24.6 0l-234 156c-6 4-9.7 11.1-9.7 18.3v156c0 7.1 3.7 14.3 9.7 18.3l234 156c8 4.9 16.5 5 24.6 0l234-156c6-4 9.7-11.1 9.7-18.3V178c0-7.1-3.7-14.3-9.7-18.3zM278 63.1 450.3 178l-76.9 51.4-95.4-63.7V63.1zm-44 0v102.6l-95.4 63.7L61.7 178 234 63.1zm-190 156L99.1 256 44 292.8v-73.7zm190 229.7L61.7 334l76.9-51.4 95.4 63.7v102.6zm22-140.9-77.7-52 77.7-52 77.7 52-77.7 52zm22 140.9V346.3l95.4-63.7 76.9 51.4L278 448.8zm190-156-55.1-36.9 55.1-36.8v73.7z"/></symbol><symbol fill="none" viewBox="0 0 18 18" id="desktop" xmlns="http://www.w3.org/2000/svg"><path d="M2 1C.897 1 0 1.897 0 3v9c0 1.103.897 2 2 2h5.5l-.334 1H5a.999.999 0 1 0 0 2h8a.999.999 0 1 0 0-2h-2.166l-.334-1H16c1.103 0 2-.897 2-2V3c0-1.103-.897-2-2-2H2Zm14 2v7H2V3h14Z" fill="currentColor"/></symbol><symbol fill="currentColor" viewBox="0 0 640 512" id="discord" xmlns="http://www.w3.org/2000/svg"><path d="M524.5 69.8a1.5 1.5 0 0 0-.8-.7A485.1 485.1 0 0 0 404.1 32a1.8 1.8 0 0 0-1.9.9 337.5 337.5 0 0 0-14.9 30.6 447.8 447.8 0 0 0-134.4 0 309.5 309.5 0 0 0-15.1-30.6 1.9 1.9 0 0 0-1.9-.9 483.7 483.7 0 0 0-119.8 37.1 1.7 1.7 0 0 0-.8.7C39.1 183.7 18.2 294.7 28.4 404.4a2 2 0 0 0 .8 1.4A487.7 487.7 0 0 0 176 479.9a1.9 1.9 0 0 0 2.1-.7 348.2 348.2 0 0 0 30-48.8 1.9 1.9 0 0 0-1-2.6 321.2 321.2 0 0 1-45.9-21.9 1.9 1.9 0 0 1-.2-3.1c3.1-2.3 6.2-4.7 9.1-7.1a1.8 1.8 0 0 1 1.9-.3c96.2 43.9 200.4 43.9 295.5 0a1.8 1.8 0 0 1 1.9.2c2.9 2.4 6 4.9 9.1 7.2a1.9 1.9 0 0 1-.2 3.1 301.4 301.4 0 0 1-45.9 21.8 1.9 1.9 0 0 0-1 2.6 391.1 391.1 0 0 0 30 48.8 1.9 1.9 0 0 0 2.1.7 486 486 0 0 0 147.2-74.1 1.9 1.9 0 0 0 .8-1.4c12.2-126.7-20.6-236.8-87-334.5zm-302 267.8c-29 0-52.8-26.6-52.8-59.2s23.4-59.3 52.8-59.3c29.7 0 53.3 26.8 52.8 59.2 0 32.7-23.4 59.3-52.8 59.3zm195.4 0c-29 0-52.8-26.6-52.8-59.2s23.3-59.3 52.8-59.3c29.7 0 53.3 26.8 52.8 59.2 0 32.7-23.2 59.3-52.8 59.3z"/></symbol><symbol fill="none" viewBox="0 0 342 342" id="en" xmlns="http://www.w3.org/2000/svg"><g clip-path="url(#da)"><mask id="db" style="mask-type:luminance" maskUnits="userSpaceOnUse" x="0" y="0" width="342" height="342"><path d="M342 0H0v342h342V0Z" fill="#fff"/></mask><g mask="url(#db)"><mask id="dc" style="mask-type:alpha" maskUnits="userSpaceOnUse" x="0" y="1" width="342" height="342"><path d="M171 343c94.441 0 171-76.559 171-171C342 77.56 265.441 1 171 1 76.56 1 0 77.56 0 172c0 94.441 76.56 171 171 171Z" fill="#D9D9D9"/></mask><g mask="url(#dc)"><path d="M0 .499h342V341.5H0V.499Z" fill="#fff"/><path d="M192.375.92h-42.75v138.532H0v63.938h149.625v138.532h42.75V203.39H342v-63.938H192.375V.921Z" fill="#D80027"/><path d="M263.036 230.726 342 296.338v-65.612h-78.964Zm-54.862 0L342 341.922v-31.443l-95.983-79.753h-37.843Zm98.179 111.196-98.179-81.584v81.584h98.179Z" fill="#0052B4"/><path d="M208.174 230.726 342 341.922v-31.443l-95.983-79.753h-37.843Z" fill="#fff"/><path d="M208.174 230.726 342 341.922v-31.443l-95.983-79.753h-37.843Z" fill="#D80027"/><path d="M60.345 230.724 0 280.866v-50.142h60.345Zm73.481 14.14v97.057H17.027l116.799-97.057Z" fill="#0052B4"/><path d="M95.983 230.726 0 310.479v31.443l133.826-111.196H95.983Z" fill="#D80027"/><path d="M78.964 112.117 0 46.505v65.612h78.964Zm54.862 0L0 .921v31.444l95.983 79.752h37.843ZM35.646.921l98.18 81.585V.92h-98.18Z" fill="#0052B4"/><path d="M133.826 112.117 0 .921v31.444l95.983 79.752h37.843Z" fill="#fff"/><path d="M133.826 112.117 0 .921v31.444l95.983 79.752h37.843Z" fill="#D80027"/><path d="M281.655 112.119 342 61.978v50.141h-60.345Zm-73.481-14.14V.922h116.799L208.174 97.979Z" fill="#0052B4"/><path d="M246.017 112.117 342 32.365V.92L208.174 112.117h37.843Z" fill="#D80027"/></g></g></g><defs><clipPath id="da"><path fill="#fff" d="M0 0h342v342H0z"/></clipPath></defs></symbol><symbol fill="currentColor" viewBox="0 0 496 512" id="github" xmlns="http://www.w3.org/2000/svg"><path d="M165.9 397.4c0 2-2.3 3.6-5.2 3.6-3.3.3-5.6-1.3-5.6-3.6 0-2 2.3-3.6 5.2-3.6 3-.3 5.6 1.3 5.6 3.6zm-31.1-4.5c-.7 2 1.3 4.3 4.3 4.9 2.6 1 5.6 0 6.2-2s-1.3-4.3-4.3-5.2c-2.6-.7-5.5.3-6.2 2.3zm44.2-1.7c-2.9.7-4.9 2.6-4.6 4.9.3 2 2.9 3.3 5.9 2.6 2.9-.7 4.9-2.6 4.6-4.6-.3-1.9-3-3.2-5.9-2.9zM244.8 8C106.1 8 0 113.3 0 252c0 110.9 69.8 205.8 169.5 239.2 12.8 2.3 17.3-5.6 17.3-12.1 0-6.2-.3-40.4-.3-61.4 0 0-70 15-84.7-29.8 0 0-11.4-29.1-27.8-36.6 0 0-22.9-15.7 1.6-15.4 0 0 24.9 2 38.6 25.8 21.9 38.6 58.6 27.5 72.9 20.9 2.3-16 8.8-27.1 16-33.7-55.9-6.2-112.3-14.3-112.3-110.5 0-27.5 7.6-41.3 23.6-58.9-2.6-6.5-11.1-33.3 2.6-67.9 20.9-6.5 69 27 69 27 20-5.6 41.5-8.5 62.8-8.5s42.8 2.9 62.8 8.5c0 0 48.1-33.6 69-27 13.7 34.7 5.2 61.4 2.6 67.9 16 17.7 25.8 31.5 25.8 58.9 0 96.5-58.9 104.2-114.8 110.5 9.2 7.9 17 22.9 17 46.4 0 33.7-.3 75.4-.3 83.6 0 6.5 4.6 14.4 17.3 12.1C428.2 457.8 496 362.9 496 252 496 113.3 383.5 8 244.8 8zM97.2 352.9c-1.3 1-1 3.3.7 5.2 1.6 1.6 3.9 2.3 5.2 1 1.3-1 1-3.3-.7-5.2-1.6-1.6-3.9-2.3-5.2-1zm-10.8-8.1c-.7 1.3.3 2.9 2.3 3.9 1.6 1 3.6.7 4.3-.7.7-1.3-.3-2.9-2.3-3.9-2-.6-3.6-.3-4.3.7zm32.4 35.6c-1.6 1.3-1 4.3 1.3 6.2 2.3 2.3 5.2 2.6 6.5 1 1.3-1.3.7-4.3-1.3-6.2-2.2-2.3-5.2-2.6-6.5-1zm-11.4-14.7c-1.6 1-1.6 3.6 0 5.9 1.6 2.3 4.3 3.3 5.6 2.3 1.6-1.3 1.6-3.9 0-6.2-1.4-2.3-4-3.3-5.6-2z"/></symbol><symbol fill="currentColor" viewBox="0 0 576 512" id="home" xmlns="http://www.w3.org/2000/svg"><path d="M575.8 255.5c0 18-15 32.1-32 32.1h-32l.7 160.2c0 2.7-.2 5.4-.5 8.1V472c0 22.1-17.9 40-40 40h-16c-1.1 0-2.2 0-3.3-.1-1.4.1-2.8.1-4.2.1H392c-22.1 0-40-17.9-40-40v-88c0-17.7-14.3-32-32-32h-64c-17.7 0-32 14.3-32 32v88c0 22.1-17.9 40-40 40h-55.9c-1.5 0-3-.1-4.5-.2-1.2.1-2.4.2-3.6.2h-16c-22.1 0-40-17.9-40-40V360c0-.9 0-1.9.1-2.8v-69.6H32c-18 0-32-14-32-32.1 0-9 3-17 10-24L266.4 8c7-7 15-8 22-8s15 2 21 7l255.4 224.5c8 7 12 15 11 24z"/></symbol><symbol fill="currentColor" viewBox="0 0 448 512" id="instagram" xmlns="http://www.w3.org/2000/svg"><path d="M224.1 141c-63.6 0-114.9 51.3-114.9 114.9s51.3 114.9 114.9 114.9S339 319.5 339 255.9 287.7 141 224.1 141zm0 189.6c-41.1 0-74.7-33.5-74.7-74.7s33.5-74.7 74.7-74.7 74.7 33.5 74.7 74.7-33.6 74.7-74.7 74.7zm146.4-194.3c0 14.9-12 26.8-26.8 26.8-14.9 0-26.8-12-26.8-26.8s12-26.8 26.8-26.8 26.8 12 26.8 26.8zm76.1 27.2c-1.7-35.9-9.9-67.7-36.2-93.9-26.2-26.2-58-34.4-93.9-36.2-37-2.1-147.9-2.1-184.9 0-35.8 1.7-67.6 9.9-93.9 36.1s-34.4 58-36.2 93.9c-2.1 37-2.1 147.9 0 184.9 1.7 35.9 9.9 67.7 36.2 93.9s58 34.4 93.9 36.2c37 2.1 147.9 2.1 184.9 0 35.9-1.7 67.7-9.9 93.9-36.2 26.2-26.2 34.4-58 36.2-93.9 2.1-37 2.1-147.8 0-184.8zM398.8 388c-7.8 19.6-22.9 34.7-42.6 42.6-29.5 11.7-99.5 9-132.1 9s-102.7 2.6-132.1-9c-19.6-7.8-34.7-22.9-42.6-42.6-11.7-29.5-9-99.5-9-132.1s-2.6-102.7 9-132.1c7.8-19.6 22.9-34.7 42.6-42.6 29.5-11.7 99.5-9 132.1-9s102.7-2.6 132.1 9c19.6 7.8 34.7 22.9 42.6 42.6 11.7 29.5 9 99.5 9 132.1s2.7 102.7-9 132.1z"/></symbol><symbol fill="currentColor" viewBox="0 0 448 512" id="linkedin" xmlns="http://www.w3.org/2000/svg"><path d="M416 32H31.9C14.3 32 0 46.5 0 64.3v383.4C0 465.5 14.3 480 31.9 480H416c17.6 0 32-14.5 32-32.3V64.3c0-17.8-14.4-32.3-32-32.3zM135.4 416H69V202.2h66.5V416zm-33.2-243c-21.3 0-38.5-17.3-38.5-38.5S80.9 96 102.2 96c21.2 0 38.5 17.3 38.5 38.5 0 21.3-17.2 38.5-38.5 38.5zm282.1 243h-66.4V312c0-24.8-.5-56.7-34.5-56.7-34.6 0-39.9 27-39.9 54.9V416h-66.4V202.2h63.7v29.2h.9c8.9-16.8 30.6-34.5 62.9-34.5 67.2 0 79.7 44.3 79.7 101.9V416z"/></symbol><symbol fill="none" viewBox="0 0 32 32" id="logo" xmlns="http://www.w3.org/2000/svg"><g clip-path="url(#ia)" fill="#fff"><path d="M22.843 22.419c-.023.021-.045.043-.068.061l-.039.037c-.004.005-.01.01-.013.015-.02.02-.043.04-.066.061-.024.024-.05.046-.075.068a1.52 1.52 0 0 1-.944.327c-.82 0-1.485-.644-1.485-1.438a1.402 1.402 0 0 1 .488-1.063l.026-.024.08-.08c2.231-2.112 2.59-5.392 1.131-7.943h.002a3.024 3.024 0 0 0 2.256-.732c.17-.146.32-.312.447-.493 1.943 3.616 1.391 8.165-1.74 11.204ZM4.907 9.108a12.241 12.241 0 0 0-1.924 6.746c.002.026.002.05.002.075v.024c-.006.38-.167.742-.446 1.008s-.655.416-1.047.416c-.773 0-1.408-.57-1.484-1.3-.002-.011-.002-.024-.002-.037-.004-.062-.004-.124-.004-.186a15 15 0 0 1 2.564-8.561l.01-.015a3.287 3.287 0 0 0 1.201 1.36c.011.008.023.013.032.02.079.051.161.097.244.14l.12.059c.233.107.48.19.74.244l-.006.007Z" fill-opacity=".4"/><path d="M29.117 24.068s-.004.01-.008.013a3.26 3.26 0 0 0-.976-1.2l-.011-.01a3.853 3.853 0 0 0-.2-.14l-.014-.01a4.51 4.51 0 0 0-.334-.188 3.425 3.425 0 0 0-.802-.273l.006-.009a12.215 12.215 0 0 0-1.832-15.4c-3.575-3.462-8.888-4.566-13.594-2.87-.131.045-.27.072-.415.08h-.007l-.074.001c-.816 0-1.479-.64-1.479-1.43 0-.207.043-.4.124-.574a1.44 1.44 0 0 1 .369-.495c.158-.137.345-.24.547-.301C16.2-.796 22.667.555 27.05 4.816c5.392 5.232 6.075 13.298 2.067 19.252Z" fill-opacity=".4"/><path d="M20.423 7.222a2.644 2.644 0 0 0-.33.267.332.332 0 0 0-.047.042l-.004.002c-.036.035-.07.07-.101.104-.036.036-.068.074-.1.11l-.092.117-.07.097c-.02.029-.039.06-.057.09a2.809 2.809 0 0 0-.436 1.774c-2.735-1.494-6.17-1.021-8.375 1.157-1.956 1.892-2.465 4.661-1.548 7.037a.407.407 0 0 1 .018.051c.004.011.01.022.012.035.056.144.084.3.084.464 0 .184-.037.367-.11.537a1.4 1.4 0 0 1-.314.455 1.482 1.482 0 0 1-1.87.144 1.407 1.407 0 0 1-.484-.59c-.004-.007-.008-.014-.01-.021a.63.63 0 0 1-.028-.077 9.209 9.209 0 0 1-.62-3.336c0-5.306 4.437-9.603 9.901-9.603 1.583 0 3.147.41 4.581 1.144Z" fill-opacity=".4"/><path d="M8.138 3.461c-1.35-1.316-3.546-1.316-4.9-.003a3.286 3.286 0 0 0-.672 3.835 3.35 3.35 0 0 0 1.211 1.345c.011.008.023.013.032.02.079.051.161.097.244.14l.12.059c.235.113.483.196.734.251a3.53 3.53 0 0 0 3.231-.894 3.289 3.289 0 0 0 0-4.753Zm7.648 8.378c-2.129 0-3.959 1.723-3.905 3.842 0 1.155.528 2.193 1.361 2.888.39.324.843.576 1.343.729a4.074 4.074 0 0 0 1.73.133c.46-.059.896-.188 1.292-.377 1.301-.618 2.197-1.869 2.197-3.373-.057-2.12-1.776-3.842-4.018-3.842Zm13.33 12.23a3.3 3.3 0 0 0-.983-1.188l-.011-.01a3.853 3.853 0 0 0-.2-.14l-.014-.01a4.51 4.51 0 0 0-.334-.188 3.257 3.257 0 0 0-.796-.282 3.534 3.534 0 0 0-3.231.898 3.289 3.289 0 0 0 0 4.752 3.542 3.542 0 0 0 4.902 0 3.295 3.295 0 0 0 1.011-2.372c0-.501-.114-1-.343-1.46ZM24.583 11.215a2.783 2.783 0 0 1-.66.663c-.601.437-1.33.624-2.043.562h-.002a2.988 2.988 0 0 1-1.834-.834 2.836 2.836 0 0 1-.858-1.78 2.809 2.809 0 0 1 .436-1.776c.018-.03.037-.06.058-.09.022-.032.047-.065.07-.096l.091-.116c.032-.037.064-.075.1-.111.035-.037.07-.071.105-.106a.332.332 0 0 1 .047-.042c.105-.1.216-.19.33-.267a3.036 3.036 0 0 1 3.822.31 2.816 2.816 0 0 1 .338 3.683ZM7.84 29.615V32H.006V21.002H2.98v8.613H7.84Zm11.243-.876c-.028-.676-.244-1.23-.65-1.66-.347-.37-.815-.633-1.396-.795a2.95 2.95 0 0 0 .433-.207 2.7 2.7 0 0 0 .706-.583c.39-.457.586-1.009.586-1.653 0-.375-.062-.718-.188-1.026a2.47 2.47 0 0 0-.834-1.05c-.681-.508-1.653-.763-2.919-.763H9.32V32h5.679c.253 0 .497-.01.728-.035.928-.087 1.682-.353 2.264-.799.729-.555 1.095-1.318 1.095-2.285 0-.047 0-.095-.002-.142Zm-6.916-5.63h2.108c.561 0 .974.087 1.237.265.004 0 .006.004.01.006.262.184.394.466.394.85 0 .385-.132.672-.395.86-.262.187-.68.28-1.246.28h-2.108V23.11Zm4.03 6.025a.91.91 0 0 1-.338.464c-.274.199-.688.297-1.246.297h-2.446v-2.418h2.446c.558 0 .972.093 1.246.28.273.188.41.494.41.92 0 .171-.023.322-.072.457Z"/></g><defs><clipPath id="ia"><path fill="#fff" d="M0 0h32v32H0z"/></clipPath></defs></symbol><symbol fill="currentColor" viewBox="0 0 512 512" id="magnifying-glass" xmlns="http://www.w3.org/2000/svg"><path d="M416 208c0 45.9-14.9 88.3-40 122.7l126.6 126.7c12.5 12.5 12.5 32.8 0 45.3s-32.8 12.5-45.3 0L330.7 376c-34.4 25.2-76.8 40-122.7 40C93.1 416 0 322.9 0 208S93.1 0 208 0s208 93.1 208 208zM208 352a144 144 0 1 0 0-288 144 144 0 1 0 0 288z"/></symbol><symbol fill="currentColor" viewBox="0 0 448 512" id="mastodon" xmlns="http://www.w3.org/2000/svg"><path d="M433 179.1c0-97.2-63.7-125.7-63.7-125.7-62.5-28.7-228.6-28.4-290.5 0 0 0-63.7 28.5-63.7 125.7 0 115.7-6.6 259.4 105.6 289.1 40.5 10.7 75.3 13 103.3 11.4 50.8-2.8 79.3-18.1 79.3-18.1l-1.7-36.9s-36.3 11.4-77.1 10.1c-40.4-1.4-83-4.4-89.6-54a102.5 102.5 0 0 1-.9-13.9c85.6 20.9 158.7 9.1 178.8 6.7 56.1-6.7 105-41.3 111.2-72.9 9.8-49.8 9-121.5 9-121.5zm-75.1 125.2h-46.6V190.1c0-49.7-64-51.6-64 6.9v62.5H201V197c0-58.5-64-56.6-64-6.9v114.2H90.2c0-122.1-5.2-147.9 18.4-175 25.9-28.9 79.8-30.8 103.8 6.1l11.6 19.5 11.6-19.5c24.1-37.1 78.1-34.8 103.8-6.1 23.7 27.3 18.4 53 18.4 175z"/></symbol><symbol fill="none" viewBox="0 0 18 18" id="moon" xmlns="http://www.w3.org/2000/svg"><path d="M10.263 0C5.3 0 1.283 4.03 1.283 9s4.018 9 8.98 9c2.434 0 4.64-.972 6.26-2.547a.642.642 0 0 0-.559-1.093 7.051 7.051 0 0 1-1.21.104c-3.893 0-7.05-3.166-7.05-7.071a7.07 7.07 0 0 1 3.587-6.16.642.642 0 0 0-.265-1.197 9.619 9.619 0 0 0-.763-.032V0Z" fill="currentColor"/></symbol><symbol viewBox="0 0 18 18" fill="none" id="newspaper" xmlns="http://www.w3.org/2000/svg"><path d="M3.375 3.375a2.252 2.252 0 0 1 2.25-2.25H15.75A2.252 2.252 0 0 1 18 3.375v11.25a2.252 2.252 0 0 1-2.25 2.25H2.812A2.812 2.812 0 0 1 0 14.062V4.5a1.124 1.124 0 1 1 2.25 0v9.563c0 .309.253.562.563.562.309 0 .562-.253.562-.563V3.376Zm2.25.844V7.03c0 .468.376.844.844.844h3.937a.842.842 0 0 0 .844-.844V4.22a.842.842 0 0 0-.844-.844H6.47a.842.842 0 0 0-.844.844Zm7.313-.282c0 .31.253.563.562.563h1.688c.309 0 .562-.253.562-.563a.564.564 0 0 0-.563-.562H13.5a.564.564 0 0 0-.563.563Zm0 3.376c0 .309.253.562.562.562h1.688c.309 0 .562-.253.562-.563a.564.564 0 0 0-.563-.562H13.5a.564.564 0 0 0-.563.563Zm-7.313 3.375c0 .309.253.562.563.562h9c.309 0 .562-.253.562-.563a.564.564 0 0 0-.563-.562h-9a.564.564 0 0 0-.562.563Zm0 3.374c0 .31.253.563.563.563h9c.309 0 .562-.253.562-.563a.564.564 0 0 0-.563-.562h-9a.564.564 0 0 0-.562.563Z" fill="currentColor"/></symbol><symbol fill="none" viewBox="0 0 342 342" id="nl" xmlns="http://www.w3.org/2000/svg"><g clip-path="url(#na)"><mask id="nb" style="mask-type:luminance" maskUnits="userSpaceOnUse" x="0" y="0" width="342" height="342"><path d="M342 0H0v342h342V0Z" fill="#fff"/></mask><g mask="url(#nb)"><mask id="nc" style="mask-type:alpha" maskUnits="userSpaceOnUse" x="0" y="1" width="342" height="342"><path d="M171 343c94.441 0 171-76.559 171-171C342 77.56 265.441 1 171 1 76.56 1 0 77.56 0 172c0 94.441 76.56 171 171 171Z" fill="#D9D9D9"/></mask><g mask="url(#nc)"><path d="M0 113.994h342v114H0v-114Z" fill="#fff"/><path d="M0-.006h342v114H0v-114Z" fill="#CD1F2A"/><path d="M0 227.994h342v114H0v-114Z" fill="#1D4185"/></g></g></g><defs><clipPath id="na"><path fill="#fff" d="M0 0h342v342H0z"/></clipPath></defs></symbol><symbol viewBox="0 0 18 18" fill="none" id="person-secret" xmlns="http://www.w3.org/2000/svg"><path d="M9 .563c-.236 0-.38-.099-.545-.215C8.223.19 7.945 0 7.312 0 6.24 0 5.484 1.536 4.992 3.143 3.33 3.449 2.25 3.945 2.25 4.5c0 .503.879.953 2.271 1.262a4.48 4.48 0 0 0 .306 2.113H2.721a.471.471 0 0 0-.436.647l1.364 3.406a6.258 6.258 0 0 0-2.524 5.028c0 .576.468 1.044 1.044 1.044h13.662c.576 0 1.044-.468 1.044-1.044a6.27 6.27 0 0 0-2.52-5.027l1.36-3.407a.471.471 0 0 0-.436-.647h-2.106a4.48 4.48 0 0 0 .306-2.113c1.392-.31 2.271-.76 2.271-1.262 0-.555-1.08-1.051-2.742-1.357C12.516 1.536 11.76 0 10.688 0c-.633 0-.911.19-1.143.348-.169.116-.31.215-.545.215Zm1.969 7.312h-.436c-.58 0-1.094-.373-1.276-.921a.268.268 0 0 0-.51 0 1.35 1.35 0 0 1-1.276.921h-.44c-.777 0-1.406-.63-1.406-1.406v-.506c.991.144 2.145.224 3.375.224s2.384-.08 3.375-.224v.506c0 .777-.63 1.406-1.406 1.406ZM7.875 11.25l.563 1.125-1.126 4.5-1.687-6.75 2.25 1.125Zm4.5-1.125-1.688 6.75-1.124-4.5.562-1.125 2.25-1.125Z" fill="currentColor"/></symbol><symbol fill="none" viewBox="0 0 18 18" id="sun" xmlns="http://www.w3.org/2000/svg"><path d="M12.708.043a.569.569 0 0 1 .338.419l.7 3.793 3.792.696a.568.568 0 0 1 .418.337.559.559 0 0 1-.056.534L15.71 9l2.19 3.174c.11.158.13.359.056.534a.569.569 0 0 1-.418.338l-3.793.7-.7 3.792a.569.569 0 0 1-.337.418.558.558 0 0 1-.534-.056L9 15.71 5.826 17.9a.559.559 0 0 1-.534.056.568.568 0 0 1-.338-.418l-.7-3.793-3.792-.7a.569.569 0 0 1-.419-.337.558.558 0 0 1 .057-.534L2.29 9 .1 5.826a.558.558 0 0 1-.057-.534.568.568 0 0 1 .419-.338l3.793-.7.7-3.792a.568.568 0 0 1 .337-.419.558.558 0 0 1 .534.057L9 2.29 12.174.1a.558.558 0 0 1 .534-.057ZM5.625 9a3.375 3.375 0 1 1 6.75 0 3.375 3.375 0 0 1-6.75 0ZM13.5 9a4.5 4.5 0 1 0-8.998 0 4.5 4.5 0 0 0 8.998 0Z" fill="currentColor"/></symbol><symbol fill="currentColor" viewBox="0 0 512 512" id="x" xmlns="http://www.w3.org/2000/svg"><path d="M389.2 48h70.6L305.6 224.2 487 464H345L233.7 318.6 106.5 464H35.8l164.9-188.5L26.8 48h145.6l100.5 132.9L389.2 48zm-24.8 373.8h39.1L151.1 88h-42l255.3 333.8z"/></symbol></svg>